<svg width="65" height="65" viewBox="0 0 65 65" fill="none" xmlns="http://www.w3.org/2000/svg">
<path d="M32.9334 8.125H32.0667L24.9438 22.3438H40.0563L32.9334 8.125ZM44.5792 22.3438H58.5542L52.9479 11.1313C52.4995 10.2288 51.8082 9.46934 50.9518 8.93826C50.0954 8.40718 49.1078 8.12553 48.1 8.125H37.4563L44.5792 22.3438ZM57.9042 26.4063H34.5313V54.4375L57.9042 26.4063ZM30.4688 54.4375V26.4063H7.09586L30.4688 54.4375ZM20.4209 22.3438L27.5167 8.125H16.9C15.8923 8.12553 14.9047 8.40718 14.0483 8.93826C13.1918 9.46934 12.5005 10.2288 12.0521 11.1313L6.44586 22.3438H20.4209Z" fill="black"/>
</svg>
