<svg width="65" height="65" viewBox="0 0 65 65" fill="none" xmlns="http://www.w3.org/2000/svg">
<path d="M47.5312 24.849L57.0781 15.2344C57.6198 14.6927 58.2635 14.4219 59.0091 14.4219C59.7548 14.4219 60.3976 14.6927 60.9375 15.2344C61.4773 15.7761 61.7482 16.4198 61.75 17.1655C61.7518 17.9112 61.481 18.5539 60.9375 19.0938L49.4271 30.6042C48.8854 31.1459 48.2534 31.4167 47.5312 31.4167C46.809 31.4167 46.1771 31.1459 45.6354 30.6042L39.8802 24.849C39.3385 24.3073 39.0677 23.6646 39.0677 22.9207C39.0677 22.1768 39.3385 21.5331 39.8802 20.9896C40.4219 20.4462 41.0538 20.1753 41.776 20.1771C42.4982 20.1789 43.1302 20.4498 43.6719 20.9896L47.5312 24.849ZM24.375 32.5C21.3958 32.5 18.8455 31.4393 16.7239 29.3177C14.6024 27.1962 13.5416 24.6459 13.5416 21.6667C13.5416 18.6875 14.6024 16.1372 16.7239 14.0157C18.8455 11.8941 21.3958 10.8334 24.375 10.8334C27.3541 10.8334 29.9045 11.8941 32.026 14.0157C34.1475 16.1372 35.2083 18.6875 35.2083 21.6667C35.2083 24.6459 34.1475 27.1962 32.026 29.3177C29.9045 31.4393 27.3541 32.5 24.375 32.5ZM2.70831 48.75V46.5834C2.70831 45.0487 3.10373 43.6385 3.89456 42.353C4.6854 41.0674 5.73442 40.0852 7.04165 39.4063C9.84026 38.007 12.684 36.958 15.5729 36.2592C18.4618 35.5605 21.3958 35.2102 24.375 35.2084C27.3541 35.2066 30.2882 35.5568 33.1771 36.2592C36.066 36.9616 38.9097 38.0106 41.7083 39.4063C43.0173 40.0834 44.0673 41.0656 44.8581 42.353C45.6489 43.6403 46.0435 45.0505 46.0416 46.5834V48.75C46.0416 50.2396 45.5117 51.5153 44.4519 52.5769C43.392 53.6386 42.1164 54.1685 40.625 54.1667H8.12498C6.6354 54.1667 5.36067 53.6368 4.30081 52.5769C3.24095 51.5171 2.71012 50.2414 2.70831 48.75Z" fill="black"/>
</svg>
