<svg width="65" height="65" viewBox="0 0 65 65" fill="none" xmlns="http://www.w3.org/2000/svg">
<path fill-rule="evenodd" clip-rule="evenodd" d="M51.4583 51.4584C52.1486 51.4591 52.8126 51.7235 53.3145 52.1973C53.8165 52.6712 54.1185 53.3189 54.159 54.008C54.1994 54.6971 53.9752 55.3756 53.5322 55.905C53.0891 56.4344 52.4607 56.7746 51.7752 56.8561L51.4583 56.875H32.5C31.8097 56.8743 31.1457 56.61 30.6438 56.1361C30.1418 55.6622 29.8398 55.0145 29.7993 54.3254C29.7588 53.6363 29.9831 52.9578 30.4261 52.4284C30.8692 51.8991 31.4976 51.5589 32.1831 51.4773L32.5 51.4584H51.4583ZM53.1673 11.83C53.7962 12.4588 54.2951 13.2053 54.6355 14.0269C54.9758 14.8485 55.151 15.7291 55.151 16.6184C55.151 17.5077 54.9758 18.3883 54.6355 19.2099C54.2951 20.0315 53.7962 20.778 53.1673 21.4067L23.6573 50.9167C23.3128 51.2613 22.9091 51.5411 22.4656 51.7427L12.1631 56.4255C9.88268 57.4627 7.53727 55.1146 8.57456 52.8342L13.26 42.5317C13.4608 42.0884 13.7397 41.6847 14.0833 41.34L43.5933 11.83C44.863 10.5607 46.5849 9.84763 48.3803 9.84763C50.1757 9.84763 51.8975 10.5607 53.1673 11.83ZM47.4256 15.6596L18.0835 44.9963L16.4883 48.509L19.9983 46.9111L49.3377 17.5771C49.467 17.4522 49.5702 17.3028 49.6412 17.1376C49.7121 16.9724 49.7495 16.7947 49.751 16.6149C49.7526 16.435 49.7183 16.2567 49.6503 16.0903C49.5822 15.9239 49.4816 15.7727 49.3545 15.6455C49.2273 15.5184 49.0761 15.4178 48.9097 15.3498C48.7433 15.2817 48.565 15.2474 48.3852 15.249C48.2054 15.2505 48.0277 15.2879 47.8625 15.3589C47.6972 15.4298 47.5478 15.533 47.4229 15.6623M16.25 2.70837C16.8149 2.7086 17.3656 2.88548 17.8251 3.21426C18.2845 3.54304 18.6296 4.00726 18.8121 4.54192L19.1641 5.56567C19.565 6.74042 20.2296 7.80772 21.1071 8.68565C21.9845 9.56358 23.0515 10.2288 24.226 10.6302L25.2498 10.9796C25.7838 11.1626 26.2474 11.508 26.5755 11.9673C26.9037 12.4267 27.0802 12.9772 27.0802 13.5417C27.0802 14.1063 26.9037 14.6567 26.5755 15.1161C26.2474 15.5754 25.7838 15.9208 25.2498 16.1038L24.226 16.4559C23.0513 16.8567 21.984 17.5213 21.106 18.3988C20.2281 19.2763 19.5629 20.3432 19.1614 21.5177L18.8121 22.5415C18.629 23.0756 18.2837 23.5391 17.8243 23.8673C17.365 24.1955 16.8145 24.3719 16.25 24.3719C15.6854 24.3719 15.135 24.1955 14.6756 23.8673C14.2162 23.5391 13.8709 23.0756 13.6879 22.5415L13.3358 21.5177C12.935 20.343 12.2703 19.2757 11.3929 18.3978C10.5154 17.5198 9.44847 16.8546 8.27393 16.4532L7.25018 16.1038C6.71611 15.9208 6.25258 15.5754 5.9244 15.1161C5.59622 14.6567 5.4198 14.1063 5.4198 13.5417C5.4198 12.9772 5.59622 12.4267 5.9244 11.9673C6.25258 11.508 6.71611 11.1626 7.25018 10.9796L8.27393 10.6275C9.44868 10.2267 10.516 9.56207 11.3939 8.68461C12.2718 7.80715 12.9371 6.7402 13.3385 5.56567L13.6879 4.54192C13.8704 4.00726 14.2155 3.54304 14.6749 3.21426C15.1343 2.88548 15.685 2.7086 16.25 2.70837ZM16.25 11.3642C15.6093 12.1705 14.8787 12.901 14.0725 13.5417C14.8814 14.1827 15.6072 14.9085 16.25 15.7192C16.8909 14.9103 17.6168 14.1845 18.4275 13.5417C17.6212 12.901 16.8906 12.1705 16.25 11.3642Z" fill="black"/>
</svg>
