<svg width="40" height="40" viewBox="0 0 40 40" fill="none" xmlns="http://www.w3.org/2000/svg">
<path d="M29.1733 12.5017H12.5V29.1734H29.1717L29.1733 12.5017Z" fill="black"/>
<path d="M35.8417 9.16667V5.83333H32.5083V2.5H29.1733V5.83333H25.84V2.5H22.505V5.83333H19.1717V2.5H15.835V5.83333H12.5017V2.5H9.16667V5.83333H5.83333V9.16667H2.5V12.5017H5.83333V15.835H2.5V19.17H5.83333V22.5033H2.5V25.8383H5.83333V29.1717H2.5V32.5067H5.83333V35.84H9.16667V39.175H12.5017V35.8417H15.835V39.175H19.17V35.8417H22.5033V39.175H25.8383V35.8417H29.1717V39.175H32.5067V35.8417H35.84V32.5083H39.175V29.1733H35.8417V25.84H39.175V22.505H35.8417V19.1717H39.175V15.835H35.8417V12.5017H39.175V9.16667H35.8417ZM32.5083 32.5067H9.16667V9.16833H32.505L32.5083 32.5067Z" fill="black"/>
</svg>
