<svg width="65" height="65" viewBox="0 0 65 65" fill="none" xmlns="http://www.w3.org/2000/svg">
<path d="M22.6958 55.7049L9.29769 42.3041C6.84664 39.8558 5.62248 38.6316 5.44914 37.1366C5.41018 36.8028 5.41018 36.4656 5.44914 36.1318C5.62248 34.6368 6.84664 33.4099 9.29498 30.9616C11.746 28.5133 12.9702 27.2891 14.4652 27.1158C14.801 27.0742 15.135 27.0742 15.4673 27.1158C16.965 27.2891 18.1891 28.5133 20.6402 30.9616L22.6254 32.9495L32.9496 22.6226L30.9644 20.6374C28.5133 18.1891 27.2891 16.9649 27.1158 15.4699C27.0768 15.1361 27.0768 14.7989 27.1158 14.4651C27.2891 12.9701 28.5133 11.746 30.9616 9.29494C33.4127 6.84661 34.6369 5.62244 36.1319 5.44911C36.4648 5.41036 36.801 5.41036 37.1339 5.44911C38.6316 5.62244 39.8558 6.84661 42.3069 9.29494L55.7077 22.7012C58.1587 25.1495 59.3829 26.3737 59.5562 27.8687C59.5978 28.2045 59.5978 28.5386 59.5562 28.8708C59.3829 30.3685 58.1587 31.5926 55.7104 34.0437C53.2593 36.4893 52.0352 37.7135 50.5402 37.8895C50.2073 37.9283 49.871 37.9283 49.5381 37.8895C48.0404 37.7135 46.8162 36.4893 44.3652 34.0437L41.3562 31.0293L31.0321 41.3562L34.041 44.3679C36.4921 46.8162 37.7162 48.0404 37.8896 49.5354C37.9311 49.8712 37.9311 50.2052 37.8896 50.5374C37.7162 52.0351 36.4921 53.2593 34.0437 55.7104C31.5927 58.156 30.3685 59.3801 28.8735 59.5562C28.5406 59.5949 28.2043 59.5949 27.8714 59.5562C26.3737 59.3801 25.1496 58.156 22.6985 55.7104" fill="black"/>
<path fill-rule="evenodd" clip-rule="evenodd" d="M47.3661 5.33001C47.747 4.94962 48.2632 4.73596 48.8015 4.73596C49.3398 4.73596 49.8561 4.94962 50.2369 5.33001L58.6436 13.7367C59.0024 14.1217 59.1977 14.631 59.1884 15.1573C59.1792 15.6835 58.966 16.1856 58.5938 16.5577C58.2217 16.9299 57.7196 17.1431 57.1933 17.1524C56.6671 17.1616 56.1578 16.9663 55.7728 16.6075L47.3634 8.20084C46.983 7.81998 46.7693 7.30371 46.7693 6.76542C46.7693 6.22714 46.9857 5.71087 47.3661 5.33001ZM5.32464 47.3633C5.7055 46.983 6.22177 46.7693 6.76005 46.7693C7.29834 46.7693 7.81461 46.983 8.19547 47.3633L16.6048 55.77C16.9636 56.1551 17.159 56.6644 17.1497 57.1906C17.1404 57.7168 16.9272 58.2189 16.5551 58.5911C16.1829 58.9632 15.6808 59.1764 15.1546 59.1857C14.6284 59.195 14.1191 58.9996 13.734 58.6408L5.32464 50.2342C4.94425 49.8533 4.73059 49.337 4.73059 48.7988C4.73059 48.2605 4.94425 47.7442 5.32464 47.3633Z" fill="black"/>
</svg>
