<svg width="65" height="65" viewBox="0 0 65 65" fill="none" xmlns="http://www.w3.org/2000/svg">
<path fill-rule="evenodd" clip-rule="evenodd" d="M13.474 6.09375H51.526C52.7313 6.09375 53.736 6.09375 54.5594 6.14792C55.4179 6.2075 56.2304 6.33479 57.0158 6.6625C57.9197 7.03649 58.7411 7.58489 59.4331 8.27636C60.125 8.96784 60.6739 9.78884 61.0485 10.6925C61.3735 11.4779 61.5008 12.2904 61.5577 13.149C61.6146 13.9723 61.6146 14.9771 61.6146 16.1823V16.3177C61.6146 17.5229 61.6146 18.5277 61.5604 19.351C61.5265 20.1928 61.3526 21.0229 61.0458 21.8075C60.6449 22.7783 60.0431 23.6533 59.28 24.375C60.0356 25.09 60.6423 25.9621 61.0485 26.9425C61.3735 27.7279 61.5008 28.5404 61.5577 29.399C61.6146 30.2223 61.6146 31.2271 61.6146 32.4323V32.5677C61.6146 33.7729 61.6146 34.7777 61.5604 35.601C61.5265 36.4428 61.3526 37.2729 61.0458 38.0575C60.6449 39.0283 60.0431 39.9033 59.28 40.625C60.0356 41.34 60.6423 42.2121 61.0485 43.1925C61.3735 43.9779 61.5008 44.7904 61.5577 45.649C61.6146 46.4723 61.6146 47.4771 61.6146 48.6823V48.8177C61.6146 50.0229 61.6146 51.0277 61.5604 51.851C61.5265 52.6928 61.3526 53.5229 61.0458 54.3075C60.6718 55.2114 60.1235 56.0328 59.432 56.7247C58.7405 57.4167 57.9195 57.9656 57.0158 58.3402C56.2304 58.6652 55.4179 58.7925 54.5594 58.8494C53.736 58.9062 52.7313 58.9062 51.526 58.9062H13.474C12.2688 58.9062 11.264 58.9062 10.4406 58.8521C9.59892 58.8182 8.76873 58.6443 7.98418 58.3375C7.08027 57.9635 6.25889 57.4151 5.56695 56.7236C4.87502 56.0322 4.32607 55.2112 3.95147 54.3075C3.62647 53.5221 3.49918 52.7096 3.4423 51.851C3.38543 51.0277 3.38543 50.0229 3.38543 48.8177V48.6823C3.38543 47.4771 3.38543 46.4723 3.4396 45.649C3.47349 44.8072 3.6474 43.9771 3.95418 43.1925C4.35517 42.2217 4.95695 41.3467 5.72001 40.625C4.95499 39.9038 4.35134 39.0288 3.94876 38.0575C3.62376 37.2721 3.49647 36.4596 3.4396 35.601C3.38272 34.7777 3.38272 33.7729 3.38272 32.5677V32.4323C3.38272 31.2271 3.38272 30.2223 3.43689 29.399C3.49647 28.5377 3.62647 27.7279 3.95147 26.9425C4.35325 25.9715 4.95597 25.0965 5.72001 24.375C4.95499 23.6538 4.35134 22.7788 3.94876 21.8075C3.62376 21.0221 3.49647 20.2096 3.4396 19.351C3.38272 18.5277 3.38272 17.5229 3.38272 16.3177V16.1823C3.38272 14.9771 3.38272 13.9723 3.43689 13.149C3.47079 12.3072 3.6447 11.4771 3.95147 10.6925C4.32546 9.78859 4.87386 8.96722 5.56533 8.27528C6.25681 7.58334 7.07782 7.03439 7.98147 6.65979C8.76689 6.33479 9.57939 6.2075 10.4379 6.15062C11.2613 6.09375 12.2688 6.09375 13.474 6.09375ZM13.539 22.3437C12.2498 22.3437 11.3831 22.3437 10.7142 22.2977C10.0615 22.2517 9.74459 22.1731 9.53605 22.0865C9.12494 21.9163 8.75139 21.6668 8.43678 21.3522C8.12216 21.0376 7.87265 20.664 7.70251 20.2529C7.61585 20.0444 7.5373 19.7275 7.49126 19.0748C7.44793 18.1339 7.43347 17.1918 7.44793 16.25C7.44793 14.9608 7.44793 14.0942 7.49397 13.4252C7.54001 12.7725 7.61855 12.4556 7.70522 12.2471C8.04918 11.4156 8.7073 10.7575 9.53876 10.4135C9.7473 10.3269 10.0642 10.2483 10.7169 10.2023C11.6578 10.1581 12.5998 10.1427 13.5417 10.1562H51.4583C52.7475 10.1562 53.6142 10.1562 54.2831 10.2023C54.9358 10.2483 55.2527 10.3269 55.4613 10.4135C56.2927 10.7575 56.9508 11.4156 57.2948 12.2471C57.3815 12.4556 57.46 12.7725 57.506 13.4252C57.5521 14.0942 57.5521 14.9608 57.5521 16.25C57.5521 17.5392 57.5521 18.4058 57.506 19.0748C57.46 19.7275 57.3815 20.0444 57.2948 20.2529C57.1247 20.664 56.8751 21.0376 56.5605 21.3522C56.2459 21.6668 55.8724 21.9163 55.4613 22.0865C55.2527 22.1731 54.9358 22.2517 54.2831 22.2977C53.6142 22.3437 52.7475 22.3437 51.4583 22.3437H13.539ZM13.539 26.4062C12.2498 26.4062 11.3831 26.4062 10.7142 26.4523C10.0615 26.4983 9.74459 26.5769 9.53605 26.6635C9.12494 26.8337 8.75139 27.0832 8.43678 27.3978C8.12216 27.7124 7.87265 28.086 7.70251 28.4971C7.61585 28.7056 7.5373 29.0225 7.49126 29.6752C7.44522 30.3442 7.44522 31.2108 7.44522 32.5C7.44522 33.7892 7.44522 34.6558 7.49126 35.3248C7.5373 35.9775 7.61585 36.2944 7.70251 36.5029C8.04647 37.3344 8.70459 37.9925 9.53605 38.3365C9.74459 38.4231 10.0615 38.5017 10.7142 38.5477C11.3831 38.5937 12.2498 38.5937 13.539 38.5937H51.4556C52.7448 38.5937 53.6115 38.5937 54.2804 38.5477C54.9331 38.5017 55.25 38.4231 55.4585 38.3365C56.29 37.9925 56.9481 37.3344 57.2921 36.5029C57.3788 36.2944 57.4573 35.9775 57.5033 35.3248C57.5494 34.6558 57.5494 33.7892 57.5494 32.5C57.5494 31.2108 57.5494 30.3442 57.5033 29.6752C57.4573 29.0225 57.3788 28.7056 57.2921 28.4971C57.1219 28.086 56.8724 27.7124 56.5578 27.3978C56.2432 27.0832 55.8697 26.8337 55.4585 26.6635C55.25 26.5769 54.9331 26.4983 54.2804 26.4523C53.3404 26.4081 52.3993 26.3928 51.4583 26.4062H13.539ZM13.539 42.6562C12.2498 42.6562 11.3831 42.6562 10.7142 42.7023C10.0615 42.7483 9.74459 42.8269 9.53605 42.9135C9.12494 43.0837 8.75139 43.3332 8.43678 43.6478C8.12216 43.9624 7.87265 44.336 7.70251 44.7471C7.61585 44.9556 7.5373 45.2725 7.49126 45.9252C7.44522 46.5942 7.44522 47.4608 7.44522 48.75C7.44522 50.0392 7.44522 50.9058 7.49126 51.5748C7.5373 52.2275 7.61585 52.5444 7.70251 52.7529C8.04647 53.5844 8.70459 54.2425 9.53605 54.5865C9.74459 54.6731 10.0615 54.7517 10.7142 54.7977C11.3831 54.8437 12.2498 54.8437 13.539 54.8437H51.4556C52.7448 54.8437 53.6115 54.8437 54.2804 54.7977C54.9331 54.7517 55.25 54.6731 55.4585 54.5865C56.29 54.2425 56.9481 53.5844 57.2921 52.7529C57.3788 52.5444 57.4573 52.2275 57.5033 51.5748C57.5494 50.9058 57.5494 50.0392 57.5494 48.75C57.5494 47.4608 57.5494 46.5942 57.5033 45.9252C57.4573 45.2725 57.3788 44.9556 57.2921 44.7471C57.1219 44.336 56.8724 43.9624 56.5578 43.6478C56.2432 43.3332 55.8697 43.0837 55.4585 42.9135C55.25 42.8269 54.9331 42.7483 54.2804 42.7023C53.3404 42.6581 52.3993 42.6428 51.4583 42.6562H13.539Z" fill="black"/>
<path d="M16.25 32.5C16.25 33.2183 15.9647 33.9071 15.4568 34.415C14.9488 34.923 14.26 35.2083 13.5417 35.2083C12.8234 35.2083 12.1345 34.923 11.6266 34.415C11.1187 33.9071 10.8333 33.2183 10.8333 32.5C10.8333 31.7817 11.1187 31.0928 11.6266 30.5849C12.1345 30.077 12.8234 29.7916 13.5417 29.7916C14.26 29.7916 14.9488 30.077 15.4568 30.5849C15.9647 31.0928 16.25 31.7817 16.25 32.5ZM16.25 16.25C16.25 16.9683 15.9647 17.6571 15.4568 18.165C14.9488 18.673 14.26 18.9583 13.5417 18.9583C12.8234 18.9583 12.1345 18.673 11.6266 18.165C11.1187 17.6571 10.8333 16.9683 10.8333 16.25C10.8333 15.5317 11.1187 14.8428 11.6266 14.3349C12.1345 13.827 12.8234 13.5416 13.5417 13.5416C14.26 13.5416 14.9488 13.827 15.4568 14.3349C15.9647 14.8428 16.25 15.5317 16.25 16.25ZM16.25 48.75C16.25 49.4683 15.9647 50.1571 15.4568 50.665C14.9488 51.173 14.26 51.4583 13.5417 51.4583C12.8234 51.4583 12.1345 51.173 11.6266 50.665C11.1187 50.1571 10.8333 49.4683 10.8333 48.75C10.8333 48.0317 11.1187 47.3428 11.6266 46.8349C12.1345 46.327 12.8234 46.0416 13.5417 46.0416C14.26 46.0416 14.9488 46.327 15.4568 46.8349C15.9647 47.3428 16.25 48.0317 16.25 48.75Z" fill="black"/>
</svg>
