<svg width="40" height="40" viewBox="0 0 40 40" fill="none" xmlns="http://www.w3.org/2000/svg">
<path d="M25 5H13.3334C10.5767 5 8.33337 7.24333 8.33337 10V30C8.33337 32.7567 10.5767 35 13.3334 35H25C27.7567 35 30 32.7567 30 30V10C30 7.24333 27.7567 5 25 5ZM26.6667 30C26.6667 30.9183 25.9184 31.6667 25 31.6667H13.3334C12.415 31.6667 11.6667 30.9183 11.6667 30V10C11.6667 9.08167 12.415 8.33333 13.3334 8.33333H25C25.9184 8.33333 26.6667 9.08167 26.6667 10V30ZM23.3334 10H15C14.0834 10 13.3334 10.75 13.3334 11.6667V26.6667C13.3334 27.5833 14.0834 28.3333 15 28.3333H17.5C17.5 28.7754 17.6756 29.1993 17.9882 29.5118C18.3008 29.8244 18.7247 30 19.1667 30C19.6087 30 20.0327 29.8244 20.3452 29.5118C20.6578 29.1993 20.8334 28.7754 20.8334 28.3333H23.3334C24.25 28.3333 25 27.5833 25 26.6667V11.6667C25 10.75 24.25 10 23.3334 10ZM23.3334 26.6667H15V11.6667H23.3334V26.6667Z" fill="black"/>
</svg>
