<svg width="65" height="65" viewBox="0 0 65 65" fill="none" xmlns="http://www.w3.org/2000/svg">
<path d="M5.41663 51.4583C5.41663 56.0625 8.93746 59.5833 13.5416 59.5833H51.4583C56.0625 59.5833 59.5833 56.0625 59.5833 51.4583V29.7916H5.41663V51.4583ZM51.4583 10.8333H46.0416V8.12496C46.0416 6.49996 44.9583 5.41663 43.3333 5.41663C41.7083 5.41663 40.625 6.49996 40.625 8.12496V10.8333H24.375V8.12496C24.375 6.49996 23.2916 5.41663 21.6666 5.41663C20.0416 5.41663 18.9583 6.49996 18.9583 8.12496V10.8333H13.5416C8.93746 10.8333 5.41663 14.3541 5.41663 18.9583V24.375H59.5833V18.9583C59.5833 14.3541 56.0625 10.8333 51.4583 10.8333Z" fill="black"/>
</svg>
