<svg width="40" height="38" viewBox="0 0 40 38" fill="none" xmlns="http://www.w3.org/2000/svg">
<path fill-rule="evenodd" clip-rule="evenodd" d="M17.1371 7.65153C16.973 7.03288 16.7531 6.4304 16.48 5.85153C14.4828 1.61153 10.0971 -0.514182 6.67999 1.09725C3.26285 2.70867 2.10856 7.44582 4.10856 11.6801C4.38856 12.2744 4.71237 12.8249 5.07999 13.3315C3.53999 14.6744 2.60285 16.8172 2.71428 19.2001C2.81713 19.1944 2.9219 19.1915 3.02856 19.1915H14.2C13.4734 16.7937 12.2464 14.5773 10.6 12.6887C10.2923 12.3284 10.1404 11.8606 10.1777 11.3883C10.2149 10.9159 10.4382 10.4778 10.7986 10.1701C11.1589 9.86245 11.6266 9.71054 12.099 9.74778C12.5713 9.78502 13.0095 10.0084 13.3171 10.3687C15.311 12.6701 16.7915 15.3701 17.66 18.2887C17.9892 16.5261 18.7149 14.8615 19.782 13.4206C20.8492 11.9797 22.23 10.8003 23.82 9.97153C21.9514 7.94296 19.16 7.31439 17.1371 7.65153ZM29.3914 12.2887C34.0943 12.2887 36.8714 14.763 37.2114 19.2001L36.9714 19.1944H21.5714C21.9114 14.7601 24.6886 12.2887 29.3914 12.2887ZM0.408563 24.7715C-1.27144 32.9544 4.42856 37.443 20 37.443C35.5714 37.443 41.2714 32.9572 39.5886 24.7801C39.3371 23.5658 38.2114 22.7687 36.9743 22.7687H3.02856C1.78856 22.7687 0.662848 23.5658 0.41142 24.7801" fill="black"/>
</svg>
